<mxfile host="app.diagrams.net" modified="2021-03-21T12:28:52.335Z" agent="5.0 (Macintosh; Intel Mac OS X 10_15_6) AppleWebKit/605.1.15 (KHTML, like Gecko) Version/14.0.3 Safari/605.1.15" etag="TLhF0O1oZ0SH2B-pmGAb" version="14.4.9" type="github">
  <diagram id="Ji3kZqEXvKOx1DbVgN0D" name="Page-1">
    <mxGraphModel dx="1113" dy="606" grid="1" gridSize="10" guides="1" tooltips="1" connect="1" arrows="1" fold="1" page="1" pageScale="1" pageWidth="827" pageHeight="1169" math="0" shadow="0">
      <root>
        <mxCell id="0" />
        <mxCell id="1" parent="0" />
        <mxCell id="-CJGJMhbpOC7MlB_--XY-1" value="Actions" style="rounded=0;whiteSpace=wrap;html=1;" vertex="1" parent="1">
          <mxGeometry x="40" y="260" width="120" height="60" as="geometry" />
        </mxCell>
        <mxCell id="-CJGJMhbpOC7MlB_--XY-2" value="Папка SRC" style="rounded=0;whiteSpace=wrap;html=1;" vertex="1" parent="1">
          <mxGeometry x="350" y="120" width="120" height="60" as="geometry" />
        </mxCell>
        <mxCell id="-CJGJMhbpOC7MlB_--XY-4" value="" style="endArrow=none;dashed=1;html=1;entryX=0;entryY=1;entryDx=0;entryDy=0;" edge="1" parent="1" target="-CJGJMhbpOC7MlB_--XY-2">
          <mxGeometry width="50" height="50" relative="1" as="geometry">
            <mxPoint x="160" y="260" as="sourcePoint" />
            <mxPoint x="210" y="210" as="targetPoint" />
          </mxGeometry>
        </mxCell>
        <mxCell id="-CJGJMhbpOC7MlB_--XY-5" value="Components" style="rounded=0;whiteSpace=wrap;html=1;" vertex="1" parent="1">
          <mxGeometry x="250" y="260" width="120" height="60" as="geometry" />
        </mxCell>
        <mxCell id="-CJGJMhbpOC7MlB_--XY-6" value="Pages" style="rounded=0;whiteSpace=wrap;html=1;" vertex="1" parent="1">
          <mxGeometry x="470" y="260" width="120" height="60" as="geometry" />
        </mxCell>
        <mxCell id="-CJGJMhbpOC7MlB_--XY-7" value="Reducers" style="rounded=0;whiteSpace=wrap;html=1;" vertex="1" parent="1">
          <mxGeometry x="680" y="260" width="120" height="60" as="geometry" />
        </mxCell>
        <mxCell id="-CJGJMhbpOC7MlB_--XY-8" value="" style="endArrow=none;dashed=1;html=1;entryX=0.358;entryY=1.017;entryDx=0;entryDy=0;entryPerimeter=0;" edge="1" parent="1" target="-CJGJMhbpOC7MlB_--XY-2">
          <mxGeometry width="50" height="50" relative="1" as="geometry">
            <mxPoint x="350" y="260" as="sourcePoint" />
            <mxPoint x="400" y="210" as="targetPoint" />
          </mxGeometry>
        </mxCell>
        <mxCell id="-CJGJMhbpOC7MlB_--XY-10" value="" style="endArrow=none;dashed=1;html=1;exitX=0.5;exitY=0;exitDx=0;exitDy=0;" edge="1" parent="1" source="-CJGJMhbpOC7MlB_--XY-6">
          <mxGeometry width="50" height="50" relative="1" as="geometry">
            <mxPoint x="400" y="230" as="sourcePoint" />
            <mxPoint x="450" y="180" as="targetPoint" />
          </mxGeometry>
        </mxCell>
        <mxCell id="-CJGJMhbpOC7MlB_--XY-11" value="" style="endArrow=none;dashed=1;html=1;exitX=0.25;exitY=0;exitDx=0;exitDy=0;" edge="1" parent="1" source="-CJGJMhbpOC7MlB_--XY-7">
          <mxGeometry width="50" height="50" relative="1" as="geometry">
            <mxPoint x="620" y="260" as="sourcePoint" />
            <mxPoint x="470" y="180" as="targetPoint" />
          </mxGeometry>
        </mxCell>
        <mxCell id="-CJGJMhbpOC7MlB_--XY-12" value="" style="endArrow=none;dashed=1;html=1;" edge="1" parent="1">
          <mxGeometry width="50" height="50" relative="1" as="geometry">
            <mxPoint x="530" y="390" as="sourcePoint" />
            <mxPoint x="530" y="320" as="targetPoint" />
          </mxGeometry>
        </mxCell>
        <mxCell id="-CJGJMhbpOC7MlB_--XY-13" value="В папку Pages кладем только страницы, которые используются&amp;nbsp;в роутинге. Пример: Main,&amp;nbsp;vocabulary, some game." style="rounded=0;whiteSpace=wrap;html=1;" vertex="1" parent="1">
          <mxGeometry x="470" y="390" width="120" height="120" as="geometry" />
        </mxCell>
        <mxCell id="-CJGJMhbpOC7MlB_--XY-14" value="" style="endArrow=none;dashed=1;html=1;" edge="1" parent="1">
          <mxGeometry width="50" height="50" relative="1" as="geometry">
            <mxPoint x="530" y="560" as="sourcePoint" />
            <mxPoint x="530" y="510" as="targetPoint" />
          </mxGeometry>
        </mxCell>
        <mxCell id="-CJGJMhbpOC7MlB_--XY-15" value="Структура каждой папки: index.ts, component.scss, component.jsx. Больше никаких файлов. Допускается вкладывать в папку КАЖДОГО ОСНОВНОГО КОМПОНЕНТА другие компоненты ТОЛЬКО если они используются в этом компоненте и нигде больше." style="rounded=0;whiteSpace=wrap;html=1;" vertex="1" parent="1">
          <mxGeometry x="435" y="560" width="190" height="160" as="geometry" />
        </mxCell>
        <mxCell id="-CJGJMhbpOC7MlB_--XY-16" style="edgeStyle=orthogonalEdgeStyle;rounded=0;orthogonalLoop=1;jettySize=auto;html=1;exitX=0.5;exitY=1;exitDx=0;exitDy=0;" edge="1" parent="1" source="-CJGJMhbpOC7MlB_--XY-15" target="-CJGJMhbpOC7MlB_--XY-15">
          <mxGeometry relative="1" as="geometry" />
        </mxCell>
        <mxCell id="-CJGJMhbpOC7MlB_--XY-18" value="" style="endArrow=none;dashed=1;html=1;entryX=0.5;entryY=1;entryDx=0;entryDy=0;" edge="1" parent="1" target="-CJGJMhbpOC7MlB_--XY-5">
          <mxGeometry width="50" height="50" relative="1" as="geometry">
            <mxPoint x="310" y="400" as="sourcePoint" />
            <mxPoint x="450" y="380" as="targetPoint" />
          </mxGeometry>
        </mxCell>
        <mxCell id="-CJGJMhbpOC7MlB_--XY-19" value="Здесь лежат только компоненты, которые переиспользуются много раз, а также header и footer. Структура каждого компонента - index.ts, componentt.scss, component.jsx." style="rounded=0;whiteSpace=wrap;html=1;" vertex="1" parent="1">
          <mxGeometry x="240" y="400" width="140" height="150" as="geometry" />
        </mxCell>
        <mxCell id="-CJGJMhbpOC7MlB_--XY-20" value="" style="endArrow=none;dashed=1;html=1;" edge="1" parent="1">
          <mxGeometry width="50" height="50" relative="1" as="geometry">
            <mxPoint x="100" y="370" as="sourcePoint" />
            <mxPoint x="100" y="320" as="targetPoint" />
          </mxGeometry>
        </mxCell>
        <mxCell id="-CJGJMhbpOC7MlB_--XY-21" value="Здесь лежат только actions для reducer." style="rounded=0;whiteSpace=wrap;html=1;" vertex="1" parent="1">
          <mxGeometry x="30" y="370" width="140" height="50" as="geometry" />
        </mxCell>
        <mxCell id="-CJGJMhbpOC7MlB_--XY-22" value="" style="endArrow=none;dashed=1;html=1;" edge="1" parent="1">
          <mxGeometry width="50" height="50" relative="1" as="geometry">
            <mxPoint x="750" y="390" as="sourcePoint" />
            <mxPoint x="750" y="320" as="targetPoint" />
          </mxGeometry>
        </mxCell>
        <mxCell id="-CJGJMhbpOC7MlB_--XY-23" value="Здесь лежит rootReducer, а также остальные редьюсеры, которые мы подключаем в основной редьюсер." style="rounded=0;whiteSpace=wrap;html=1;" vertex="1" parent="1">
          <mxGeometry x="670" y="390" width="140" height="140" as="geometry" />
        </mxCell>
        <mxCell id="-CJGJMhbpOC7MlB_--XY-24" value="Структура компонента:&lt;br&gt;&lt;br&gt;1) Импорты&lt;br&gt;&lt;br&gt;2) const Component =()=&amp;gt;{&lt;br&gt;...some code&lt;br&gt;&lt;br&gt;return &amp;lt;div className=&#39;Component&#39;&amp;gt;&lt;br&gt;...some code&lt;br&gt;&amp;lt;/div&amp;gt;&lt;br&gt;&lt;br&gt;}&lt;br&gt;&lt;br&gt;3) если используете HOC connect, то здесь mapStateToProps и mapDispatchToProps&lt;br&gt;&lt;br&gt;4) export default Component или export default connect (mapStateToProps, mapDispatchToProps)(Component)" style="text;html=1;strokeColor=none;fillColor=none;align=left;verticalAlign=middle;whiteSpace=wrap;rounded=0;" vertex="1" parent="1">
          <mxGeometry x="30" y="780" width="780" height="340" as="geometry" />
        </mxCell>
        <mxCell id="-CJGJMhbpOC7MlB_--XY-25" value="Есть паттерны, которые &amp;nbsp;рекомендуют обертывать компонент в див с классом названия компонента с БОЛЬШОЙ БУКВЫ" style="text;html=1;strokeColor=none;fillColor=none;align=center;verticalAlign=middle;whiteSpace=wrap;rounded=0;" vertex="1" parent="1">
          <mxGeometry x="290" y="900" width="330" height="80" as="geometry" />
        </mxCell>
      </root>
    </mxGraphModel>
  </diagram>
</mxfile>
